{
	"asset":{
		"generator":"Khronos glTF Blender I/O v4.1.62",
		"version":"2.0"
	},
	"extensionsUsed":[
		"KHR_materials_specular"
	],
	"scene":0,
	"scenes":[
		{
			"name":"Scene",
			"nodes":[
				0
			]
		}
	],
	"nodes":[
		{
			"mesh":0,
			"name":"Untitled",
			"rotation":[
				0.7071068286895752,
				0,
				0,
				0.7071068286895752
			]
		}
	],
	"materials":[
		{
			"doubleSided":true,
			"extensions":{
				"KHR_materials_specular":{
					"specularFactor":0.6600000262260437
				}
			},
			"name":"M_21___Default",
			"pbrMetallicRoughness":{
				"baseColorTexture":{
					"index":0
				},
				"metallicFactor":0
			}
		},
		{
			"doubleSided":true,
			"extensions":{
				"KHR_materials_specular":{
					"specularFactor":0.6600000262260437
				}
			},
			"name":"front_lights",
			"pbrMetallicRoughness":{
				"baseColorFactor":[
					0.5882350206375122,
					0.5882350206375122,
					0.5882350206375122,
					1
				],
				"metallicFactor":0
			}
		},
		{
			"doubleSided":true,
			"extensions":{
				"KHR_materials_specular":{
					"specularFactor":0.6600000262260437
				}
			},
			"name":"M_405plastic",
			"pbrMetallicRoughness":{
				"baseColorFactor":[
					0.09019599854946136,
					0.09019599854946136,
					0.09019599854946136,
					1
				],
				"metallicFactor":0
			}
		},
		{
			"doubleSided":true,
			"extensions":{
				"KHR_materials_specular":{
					"specularFactor":0.6600000262260437
				}
			},
			"name":"mirror",
			"pbrMetallicRoughness":{
				"baseColorTexture":{
					"index":1
				},
				"metallicFactor":0
			}
		},
		{
			"doubleSided":true,
			"extensions":{
				"KHR_materials_specular":{
					"specularFactor":0.6600000262260437
				}
			},
			"name":"M_405black",
			"pbrMetallicRoughness":{
				"baseColorFactor":[
					0,
					0,
					0,
					1
				],
				"metallicFactor":0
			}
		},
		{
			"alphaMode":"BLEND",
			"doubleSided":true,
			"extensions":{
				"KHR_materials_specular":{
					"specularFactor":0.6600000262260437
				}
			},
			"name":"Translucent_Glass_Blue",
			"pbrMetallicRoughness":{
				"baseColorFactor":[
					0.3921569883823395,
					0.5843139886856079,
					0.9294120073318481,
					0.30000001192092896
				],
				"metallicFactor":0,
				"roughnessFactor":0.2753623127937317
			}
		},
		{
			"doubleSided":true,
			"extensions":{
				"KHR_materials_specular":{
					"specularFactor":0.6600000262260437
				}
			},
			"name":"M_405steel",
			"pbrMetallicRoughness":{
				"baseColorFactor":[
					0.5882350206375122,
					0.5882350206375122,
					0.5882350206375122,
					1
				],
				"metallicFactor":0
			}
		},
		{
			"doubleSided":true,
			"extensions":{
				"KHR_materials_specular":{
					"specularFactor":0.6600000262260437
				}
			},
			"name":"M_05___Default",
			"pbrMetallicRoughness":{
				"baseColorTexture":{
					"index":2
				},
				"metallicFactor":0
			}
		},
		{
			"doubleSided":true,
			"extensions":{
				"KHR_materials_specular":{
					"specularFactor":0.6600000262260437
				}
			},
			"name":"interior",
			"pbrMetallicRoughness":{
				"baseColorFactor":[
					0.1333329975605011,
					0.1333329975605011,
					0.1333329975605011,
					1
				],
				"metallicFactor":0
			}
		},
		{
			"doubleSided":true,
			"extensions":{
				"KHR_materials_specular":{
					"specularFactor":0.6600000262260437
				}
			},
			"name":"M_13___Default",
			"pbrMetallicRoughness":{
				"baseColorFactor":[
					0.7294120192527771,
					0.7294120192527771,
					0.7294120192527771,
					1
				],
				"metallicFactor":0
			}
		},
		{
			"doubleSided":true,
			"extensions":{
				"KHR_materials_specular":{
					"specularFactor":0.6600000262260437
				}
			},
			"name":"M_10___Default",
			"pbrMetallicRoughness":{
				"baseColorFactor":[
					0.5882350206375122,
					0.5882350206375122,
					0.5882350206375122,
					1
				],
				"metallicFactor":0
			}
		},
		{
			"doubleSided":true,
			"extensions":{
				"KHR_materials_specular":{
					"specularFactor":0.6600000262260437
				}
			},
			"name":"M_08___Default",
			"pbrMetallicRoughness":{
				"baseColorFactor":[
					0.34902000427246094,
					0.34902000427246094,
					0.34902000427246094,
					1
				],
				"metallicFactor":0
			}
		},
		{
			"doubleSided":true,
			"extensions":{
				"KHR_materials_specular":{
					"specularFactor":0.6600000262260437
				}
			},
			"name":"FrontColor",
			"pbrMetallicRoughness":{
				"metallicFactor":0
			}
		}
	],
	"meshes":[
		{
			"name":"Untitled",
			"primitives":[
				{
					"attributes":{
						"POSITION":0,
						"NORMAL":1,
						"TEXCOORD_0":2
					},
					"indices":3,
					"material":0
				},
				{
					"attributes":{
						"POSITION":4,
						"NORMAL":5,
						"TEXCOORD_0":6
					},
					"indices":7,
					"material":1
				},
				{
					"attributes":{
						"POSITION":8,
						"NORMAL":9,
						"TEXCOORD_0":10
					},
					"indices":11,
					"material":2
				},
				{
					"attributes":{
						"POSITION":12,
						"NORMAL":13,
						"TEXCOORD_0":14
					},
					"indices":15,
					"material":3
				},
				{
					"attributes":{
						"POSITION":16,
						"NORMAL":17,
						"TEXCOORD_0":18
					},
					"indices":19,
					"material":4
				},
				{
					"attributes":{
						"POSITION":20,
						"NORMAL":21,
						"TEXCOORD_0":22
					},
					"indices":23,
					"material":5
				},
				{
					"attributes":{
						"POSITION":24,
						"NORMAL":25,
						"TEXCOORD_0":26
					},
					"indices":27,
					"material":6
				},
				{
					"attributes":{
						"POSITION":28,
						"NORMAL":29,
						"TEXCOORD_0":30
					},
					"indices":31,
					"material":7
				},
				{
					"attributes":{
						"POSITION":32,
						"NORMAL":33,
						"TEXCOORD_0":34
					},
					"indices":35,
					"material":8
				},
				{
					"attributes":{
						"POSITION":36,
						"NORMAL":37,
						"TEXCOORD_0":38
					},
					"indices":39,
					"material":9
				},
				{
					"attributes":{
						"POSITION":40,
						"NORMAL":41,
						"TEXCOORD_0":42
					},
					"indices":43,
					"material":10
				},
				{
					"attributes":{
						"POSITION":44,
						"NORMAL":45,
						"TEXCOORD_0":46
					},
					"indices":47,
					"material":11
				},
				{
					"attributes":{
						"POSITION":48,
						"NORMAL":49,
						"TEXCOORD_0":50
					},
					"indices":51,
					"material":12
				}
			]
		}
	],
	"textures":[
		{
			"sampler":0,
			"source":0
		},
		{
			"sampler":0,
			"source":1
		},
		{
			"sampler":0,
			"source":2
		}
	],
	"images":[
		{
			"mimeType":"image/jpeg",
			"name":"M_21___Default",
			"uri":"M_21___Default.jpg"
		},
		{
			"mimeType":"image/png",
			"name":"mirror",
			"uri":"mirror.png"
		},
		{
			"mimeType":"image/jpeg",
			"name":"M_05___Default",
			"uri":"M_05___Default.jpg"
		}
	],
	"accessors":[
		{
			"bufferView":0,
			"componentType":5126,
			"count":2899,
			"max":[
				166.18499755859375,
				-27.04199981689453,
				0.8647099733352661
			],
			"min":[
				12.018899917602539,
				-344.74798583984375,
				-57.35929870605469
			],
			"type":"VEC3"
		},
		{
			"bufferView":1,
			"componentType":5126,
			"count":2899,
			"type":"VEC3"
		},
		{
			"bufferView":2,
			"componentType":5126,
			"count":2899,
			"type":"VEC2"
		},
		{
			"bufferView":3,
			"componentType":5123,
			"count":5736,
			"type":"SCALAR"
		},
		{
			"bufferView":4,
			"componentType":5126,
			"count":29762,
			"max":[
				167.572998046875,
				-34.17940139770508,
				-5.9840497970581055
			],
			"min":[
				10.630800247192383,
				-337.54998779296875,
				-50.2411003112793
			],
			"type":"VEC3"
		},
		{
			"bufferView":5,
			"componentType":5126,
			"count":29762,
			"type":"VEC3"
		},
		{
			"bufferView":6,
			"componentType":5126,
			"count":29762,
			"type":"VEC2"
		},
		{
			"bufferView":7,
			"componentType":5123,
			"count":31797,
			"type":"SCALAR"
		},
		{
			"bufferView":8,
			"componentType":5126,
			"count":24879,
			"max":[
				181.25900268554688,
				37.77130126953125,
				-27.51609992980957
			],
			"min":[
				-4.321380138397217,
				-411.3160095214844,
				-133.0540008544922
			],
			"type":"VEC3"
		},
		{
			"bufferView":9,
			"componentType":5126,
			"count":24879,
			"type":"VEC3"
		},
		{
			"bufferView":10,
			"componentType":5126,
			"count":24879,
			"type":"VEC2"
		},
		{
			"bufferView":11,
			"componentType":5123,
			"count":25068,
			"type":"SCALAR"
		},
		{
			"bufferView":12,
			"componentType":5126,
			"count":3981,
			"max":[
				180.69000244140625,
				32.542301177978516,
				-54.02190017700195
			],
			"min":[
				-3.6532700061798096,
				-403.7130126953125,
				-101.26399993896484
			],
			"type":"VEC3"
		},
		{
			"bufferView":13,
			"componentType":5126,
			"count":3981,
			"type":"VEC3"
		},
		{
			"bufferView":14,
			"componentType":5126,
			"count":3981,
			"type":"VEC2"
		},
		{
			"bufferView":15,
			"componentType":5123,
			"count":4917,
			"type":"SCALAR"
		},
		{
			"bufferView":16,
			"componentType":5126,
			"count":2564,
			"max":[
				168.9499969482422,
				31.347700119018555,
				-17.752500534057617
			],
			"min":[
				7.7725701332092285,
				-397.12200927734375,
				-132.68600463867188
			],
			"type":"VEC3"
		},
		{
			"bufferView":17,
			"componentType":5126,
			"count":2564,
			"type":"VEC3"
		},
		{
			"bufferView":18,
			"componentType":5126,
			"count":2564,
			"type":"VEC2"
		},
		{
			"bufferView":19,
			"componentType":5123,
			"count":2592,
			"type":"SCALAR"
		},
		{
			"bufferView":20,
			"componentType":5126,
			"count":2398,
			"max":[
				164.52200317382812,
				28.677799224853516,
				-30.69879913330078
			],
			"min":[
				12.038200378417969,
				-348.73699951171875,
				-132.09500122070312
			],
			"type":"VEC3"
		},
		{
			"bufferView":21,
			"componentType":5126,
			"count":2398,
			"type":"VEC3"
		},
		{
			"bufferView":22,
			"componentType":5126,
			"count":2398,
			"type":"VEC2"
		},
		{
			"bufferView":23,
			"componentType":5123,
			"count":2400,
			"type":"SCALAR"
		},
		{
			"bufferView":24,
			"componentType":5126,
			"count":6,
			"max":[
				134.625,
				24.984399795532227,
				-31.513099670410156
			],
			"min":[
				131.7740020751953,
				24.404800415039062,
				-36.28269958496094
			],
			"type":"VEC3"
		},
		{
			"bufferView":25,
			"componentType":5126,
			"count":6,
			"type":"VEC3"
		},
		{
			"bufferView":26,
			"componentType":5126,
			"count":6,
			"type":"VEC2"
		},
		{
			"bufferView":27,
			"componentType":5123,
			"count":6,
			"type":"SCALAR"
		},
		{
			"bufferView":28,
			"componentType":5126,
			"count":1162,
			"max":[
				181.5189971923828,
				-95.29889678955078,
				-55.4724006652832
			],
			"min":[
				-4.58135986328125,
				-404.7099914550781,
				-96.5114974975586
			],
			"type":"VEC3"
		},
		{
			"bufferView":29,
			"componentType":5126,
			"count":1162,
			"type":"VEC3"
		},
		{
			"bufferView":30,
			"componentType":5126,
			"count":1162,
			"type":"VEC2"
		},
		{
			"bufferView":31,
			"componentType":5123,
			"count":2046,
			"type":"SCALAR"
		},
		{
			"bufferView":32,
			"componentType":5126,
			"count":6821,
			"max":[
				164.7740020751953,
				-79.58039855957031,
				-25.877099990844727
			],
			"min":[
				11.205599784851074,
				-351.6780090332031,
				-133.1510009765625
			],
			"type":"VEC3"
		},
		{
			"bufferView":33,
			"componentType":5126,
			"count":6821,
			"type":"VEC3"
		},
		{
			"bufferView":34,
			"componentType":5126,
			"count":6821,
			"type":"VEC2"
		},
		{
			"bufferView":35,
			"componentType":5123,
			"count":7461,
			"type":"SCALAR"
		},
		{
			"bufferView":36,
			"componentType":5126,
			"count":9120,
			"max":[
				171.5709991455078,
				38.03020095825195,
				-20.87779998779297
			],
			"min":[
				5.021679878234863,
				-411.67401123046875,
				-133.156005859375
			],
			"type":"VEC3"
		},
		{
			"bufferView":37,
			"componentType":5126,
			"count":9120,
			"type":"VEC3"
		},
		{
			"bufferView":38,
			"componentType":5126,
			"count":9120,
			"type":"VEC2"
		},
		{
			"bufferView":39,
			"componentType":5123,
			"count":9420,
			"type":"SCALAR"
		},
		{
			"bufferView":40,
			"componentType":5126,
			"count":5793,
			"max":[
				159.0449981689453,
				28.08679962158203,
				-30.69879913330078
			],
			"min":[
				17.892799377441406,
				-1.2008600234985352,
				-66.55169677734375
			],
			"type":"VEC3"
		},
		{
			"bufferView":41,
			"componentType":5126,
			"count":5793,
			"type":"VEC3"
		},
		{
			"bufferView":42,
			"componentType":5126,
			"count":5793,
			"type":"VEC2"
		},
		{
			"bufferView":43,
			"componentType":5123,
			"count":5964,
			"type":"SCALAR"
		},
		{
			"bufferView":44,
			"componentType":5126,
			"count":31941,
			"max":[
				181.48599243164062,
				37.040000915527344,
				-14.708499908447266
			],
			"min":[
				-4.54787015914917,
				-409.9849853515625,
				-137.20899963378906
			],
			"type":"VEC3"
		},
		{
			"bufferView":45,
			"componentType":5126,
			"count":31941,
			"type":"VEC3"
		},
		{
			"bufferView":46,
			"componentType":5126,
			"count":31941,
			"type":"VEC2"
		},
		{
			"bufferView":47,
			"componentType":5123,
			"count":32034,
			"type":"SCALAR"
		},
		{
			"bufferView":48,
			"componentType":5126,
			"count":288,
			"max":[
				147.1020050048828,
				17.46820068359375,
				-55.793701171875
			],
			"min":[
				29.861000061035156,
				11.105199813842773,
				-63.842498779296875
			],
			"type":"VEC3"
		},
		{
			"bufferView":49,
			"componentType":5126,
			"count":288,
			"type":"VEC3"
		},
		{
			"bufferView":50,
			"componentType":5126,
			"count":288,
			"type":"VEC2"
		},
		{
			"bufferView":51,
			"componentType":5123,
			"count":864,
			"type":"SCALAR"
		}
	],
	"bufferViews":[
		{
			"buffer":0,
			"byteLength":34788,
			"byteOffset":0,
			"target":34962
		},
		{
			"buffer":0,
			"byteLength":34788,
			"byteOffset":34788,
			"target":34962
		},
		{
			"buffer":0,
			"byteLength":23192,
			"byteOffset":69576,
			"target":34962
		},
		{
			"buffer":0,
			"byteLength":11472,
			"byteOffset":92768,
			"target":34963
		},
		{
			"buffer":0,
			"byteLength":357144,
			"byteOffset":104240,
			"target":34962
		},
		{
			"buffer":0,
			"byteLength":357144,
			"byteOffset":461384,
			"target":34962
		},
		{
			"buffer":0,
			"byteLength":238096,
			"byteOffset":818528,
			"target":34962
		},
		{
			"buffer":0,
			"byteLength":63594,
			"byteOffset":1056624,
			"target":34963
		},
		{
			"buffer":0,
			"byteLength":298548,
			"byteOffset":1120220,
			"target":34962
		},
		{
			"buffer":0,
			"byteLength":298548,
			"byteOffset":1418768,
			"target":34962
		},
		{
			"buffer":0,
			"byteLength":199032,
			"byteOffset":1717316,
			"target":34962
		},
		{
			"buffer":0,
			"byteLength":50136,
			"byteOffset":1916348,
			"target":34963
		},
		{
			"buffer":0,
			"byteLength":47772,
			"byteOffset":1966484,
			"target":34962
		},
		{
			"buffer":0,
			"byteLength":47772,
			"byteOffset":2014256,
			"target":34962
		},
		{
			"buffer":0,
			"byteLength":31848,
			"byteOffset":2062028,
			"target":34962
		},
		{
			"buffer":0,
			"byteLength":9834,
			"byteOffset":2093876,
			"target":34963
		},
		{
			"buffer":0,
			"byteLength":30768,
			"byteOffset":2103712,
			"target":34962
		},
		{
			"buffer":0,
			"byteLength":30768,
			"byteOffset":2134480,
			"target":34962
		},
		{
			"buffer":0,
			"byteLength":20512,
			"byteOffset":2165248,
			"target":34962
		},
		{
			"buffer":0,
			"byteLength":5184,
			"byteOffset":2185760,
			"target":34963
		},
		{
			"buffer":0,
			"byteLength":28776,
			"byteOffset":2190944,
			"target":34962
		},
		{
			"buffer":0,
			"byteLength":28776,
			"byteOffset":2219720,
			"target":34962
		},
		{
			"buffer":0,
			"byteLength":19184,
			"byteOffset":2248496,
			"target":34962
		},
		{
			"buffer":0,
			"byteLength":4800,
			"byteOffset":2267680,
			"target":34963
		},
		{
			"buffer":0,
			"byteLength":72,
			"byteOffset":2272480,
			"target":34962
		},
		{
			"buffer":0,
			"byteLength":72,
			"byteOffset":2272552,
			"target":34962
		},
		{
			"buffer":0,
			"byteLength":48,
			"byteOffset":2272624,
			"target":34962
		},
		{
			"buffer":0,
			"byteLength":12,
			"byteOffset":2272672,
			"target":34963
		},
		{
			"buffer":0,
			"byteLength":13944,
			"byteOffset":2272684,
			"target":34962
		},
		{
			"buffer":0,
			"byteLength":13944,
			"byteOffset":2286628,
			"target":34962
		},
		{
			"buffer":0,
			"byteLength":9296,
			"byteOffset":2300572,
			"target":34962
		},
		{
			"buffer":0,
			"byteLength":4092,
			"byteOffset":2309868,
			"target":34963
		},
		{
			"buffer":0,
			"byteLength":81852,
			"byteOffset":2313960,
			"target":34962
		},
		{
			"buffer":0,
			"byteLength":81852,
			"byteOffset":2395812,
			"target":34962
		},
		{
			"buffer":0,
			"byteLength":54568,
			"byteOffset":2477664,
			"target":34962
		},
		{
			"buffer":0,
			"byteLength":14922,
			"byteOffset":2532232,
			"target":34963
		},
		{
			"buffer":0,
			"byteLength":109440,
			"byteOffset":2547156,
			"target":34962
		},
		{
			"buffer":0,
			"byteLength":109440,
			"byteOffset":2656596,
			"target":34962
		},
		{
			"buffer":0,
			"byteLength":72960,
			"byteOffset":2766036,
			"target":34962
		},
		{
			"buffer":0,
			"byteLength":18840,
			"byteOffset":2838996,
			"target":34963
		},
		{
			"buffer":0,
			"byteLength":69516,
			"byteOffset":2857836,
			"target":34962
		},
		{
			"buffer":0,
			"byteLength":69516,
			"byteOffset":2927352,
			"target":34962
		},
		{
			"buffer":0,
			"byteLength":46344,
			"byteOffset":2996868,
			"target":34962
		},
		{
			"buffer":0,
			"byteLength":11928,
			"byteOffset":3043212,
			"target":34963
		},
		{
			"buffer":0,
			"byteLength":383292,
			"byteOffset":3055140,
			"target":34962
		},
		{
			"buffer":0,
			"byteLength":383292,
			"byteOffset":3438432,
			"target":34962
		},
		{
			"buffer":0,
			"byteLength":255528,
			"byteOffset":3821724,
			"target":34962
		},
		{
			"buffer":0,
			"byteLength":64068,
			"byteOffset":4077252,
			"target":34963
		},
		{
			"buffer":0,
			"byteLength":3456,
			"byteOffset":4141320,
			"target":34962
		},
		{
			"buffer":0,
			"byteLength":3456,
			"byteOffset":4144776,
			"target":34962
		},
		{
			"buffer":0,
			"byteLength":2304,
			"byteOffset":4148232,
			"target":34962
		},
		{
			"buffer":0,
			"byteLength":1728,
			"byteOffset":4150536,
			"target":34963
		}
	],
	"samplers":[
		{
			"magFilter":9729,
			"minFilter":9987
		}
	],
	"buffers":[
		{
			"byteLength":4152264,
			"uri":"untitled.bin"
		}
	]
}
